# xmcd CD database file
#
# Track frame offsets:
#	150
#	12810
#	28194
#	42341
#	56085
#
# Disc length: 934 seconds
#
# Revision: 0
# Processed by: cddbd v1.5.2PL0 Copyright (c) Steve Scherf et al.
# Submitted via: CDex 1.51
#
DISCID=3a03a405
DTITLE=Lindsay Ell - Lindsay Ell EP
DYEAR=2015
DGENRE=Country
TTITLE0=Trippin' On Us
TTITLE1=Good For Me
TTITLE2=Don't Take Me Home
TTITLE3=Pickup Truck
TTITLE4=Bad Boy
EXTD=YEAR: 2015
EXTT0=
EXTT1=
EXTT2=
EXTT3=
EXTT4=
PLAYORDER=
